<?xml version="1.0" encoding="utf-8"?>
<!-- Generator: Adobe Illustrator 22.1.0, SVG Export Plug-In . SVG Version: 6.00 Build 0)  -->
<svg version="1.1" id="Camada_1" xmlns="http://www.w3.org/2000/svg" xmlns:xlink="http://www.w3.org/1999/xlink" x="0px" y="0px"
	 viewBox="0 0 270 192" style="enable-background:new 0 0 270 192;" xml:space="preserve">
<title>autonomous_logoblck</title>
<g>
	<path d="M30.9,110.1c-0.2,0-0.3-0.1-0.5,0l0,0L17,108.8c-2.1-0.2-4.3-0.3-6.4-0.2c-1.8,0.1-3.6,0.6-5.2,1.6
		c-1.6,1.1-2.8,2.7-3.5,4.5c-1,2.5-1.6,5.2-1.7,7.9c-0.3,2.7-0.2,5.4,0.3,8.1c0.4,1.9,1.3,3.6,2.7,5c1.4,1.3,3.1,2.1,4.9,2.5
		c2.1,0.5,4.2,0.8,6.3,1l13.3,1.2H28c0.4,0,0.7-0.1,1-0.3c0.3-0.3,0.5-0.8,0.5-1.2l0.2-1.8c0.2-0.8-0.3-1.6-1-1.8
		c-0.2,0-0.3-0.1-0.5,0l-5.1-0.5l1.8-20l5.1,0.5c0.8,0.2,1.6-0.3,1.8-1c0-0.2,0.1-0.3,0-0.5l0.2-1.8
		C32.1,111.1,31.7,110.3,30.9,110.1z M15.5,134l-0.8-0.1c-1.3-0.1-2.5-0.3-3.7-0.8c-0.7-0.3-1.2-0.8-1.5-1.4c-0.4-1-0.5-2-0.5-3
		c0-1.4,0.1-3.2,0.3-5.4c0.2-2.1,0.4-3.9,0.7-5.3c0.1-1,0.5-2,1-2.9c0.4-0.6,1-1,1.7-1.1c0.6-0.1,1.3-0.2,2-0.2c0.6,0,1.2,0,1.8,0.1
		l0.8,0.1L15.5,134z"/>
	<path d="M36.3,77.1c-1.6-0.9-3.5-1.8-5.7-2.7l-12.1-5.2c-0.4-0.2-0.9-0.3-1.3-0.1c-0.4,0.2-0.7,0.6-0.9,1L15.5,72
		c-0.2,0.4-0.3,0.9-0.1,1.3c0.2,0.4,0.6,0.7,1,0.9l12.1,5.2c1.2,0.5,2.3,1.1,3.4,1.8c0.5,0.4,0.9,0.9,1.1,1.6c0.1,0.9,0,1.8-0.4,2.7
		c-0.4,1.2-1,2.9-1.9,4.9c-0.8,2-1.6,3.5-2.2,4.7c-0.4,0.8-1,1.6-1.7,2.1c-0.5,0.3-1.2,0.4-1.8,0.3c-1.3-0.3-2.5-0.7-3.6-1.2L9.2,91
		c-0.4-0.2-0.9-0.3-1.3-0.1c-0.4,0.2-0.7,0.6-0.9,1l-0.8,1.9c-0.2,0.4-0.3,0.9-0.1,1.3c0.2,0.4,0.6,0.7,1,0.9l12.1,5.2
		c2.2,0.9,4.2,1.7,5.9,2.3c1.1,0.4,2.4,0.6,3.6,0.6c0.6,0,1.2-0.1,1.7-0.2c1.8-0.4,3.5-1.5,4.7-2.9c1.7-2.1,3.1-4.5,4.1-7.1
		c1.2-2.5,1.9-5.1,2.3-7.8c0.2-1.9-0.2-3.8-1.1-5.5C39.3,79.1,37.9,77.9,36.3,77.1z"/>
	<path d="M55.6,64.1L55.6,64.1L40.8,51.6l6.7-7.9c0.5-0.4,0.7-1,0.8-1.7c-0.1-0.6-0.5-1.2-1-1.5L46.6,40c-1.3-1.3-3.1-1.8-4.9-1.4
		c-1.6,0.4-3.3,1.8-5.3,4.1L27.6,53c-0.9,1-1.6,2-2.2,3.1c-0.5,0.9-0.8,1.8-1,2.9c-0.1,0.9,0.1,1.8,0.5,2.5c0.4,0.8,1,1.5,1.7,2
		l0.6,0.5c0.4,0.5,1,0.7,1.7,0.8c0.6-0.1,1.2-0.5,1.5-1l6.7-7.8l14.8,12.4c0.3,0.3,0.7,0.5,1.1,0.6h0.1c0.5-0.1,0.9-0.3,1.2-0.7
		l1.5-1.8c0.6-0.5,0.7-1.5,0.2-2.1C55.8,64.3,55.7,64.2,55.6,64.1z"/>
	<path d="M90.2,22.6l3.2,13c0.1,0.5,0.3,0.9,0.7,1.1c0.2,0.1,0.5,0.2,0.7,0.2c0.2,0,0.4,0,0.6-0.1l1.7-0.4c0.5-0.1,0.9-0.3,1.1-0.7
		c0.2-0.4,0.3-0.9,0.1-1.3l-3.2-13c-0.3-1.2-0.5-2.5-0.6-3.7c0-0.6,0-1.2,0.3-1.8c0.1-0.3,0.4-0.5,0.7-0.7c0.5-0.2,1.1-0.4,1.7-0.5
		c0.6-0.2,1.2-0.3,1.9-0.3c0.4,0,0.7,0.1,1,0.3c0.5,0.4,1,0.9,1.3,1.4c0.6,0.8,1.3,1.9,2.2,3.3c1.6,2.7,3,4.9,4,6.5
		c0.9,1.4,1.9,2.8,3.1,4c0.9,0.9,1.9,1.6,3.1,1.9c1.2,0.2,2.4,0.2,3.5-0.1c1.7-0.3,3.3-1.1,4.5-2.2c1-1,1.7-2.4,1.9-3.9
		c0.2-1.7,0.1-3.3-0.3-4.9c-0.3-1.8-0.8-3.8-1.4-6.1L119,1.4c-0.1-0.5-0.3-0.9-0.7-1.2c-0.4-0.2-0.9-0.2-1.3-0.1l-1.7,0.4
		c-0.5,0.1-0.9,0.3-1.1,0.7c-0.2,0.4-0.3,0.9-0.1,1.3l3.1,13.1c0.3,1.2,0.6,2.5,0.6,3.8c0.1,0.6,0,1.3-0.3,1.9
		c-0.1,0.3-0.4,0.6-0.7,0.7c-0.5,0.2-1.1,0.4-1.7,0.6c-0.6,0.2-1.2,0.3-1.9,0.3c-0.4,0-0.7-0.2-1-0.4c-0.5-0.5-1-1-1.4-1.6
		c-0.6-0.8-1.3-2-2.2-3.4c-1.6-2.7-2.9-4.7-4-6.4c-0.9-1.4-1.9-2.7-3.1-3.9c-0.9-0.9-2-1.5-3.2-1.8c-1.2-0.2-2.4-0.1-3.5,0.2
		c-1.7,0.3-3.2,1.1-4.5,2.2c-1,1-1.7,2.3-1.9,3.8c-0.2,1.6-0.1,3.3,0.2,4.9C89.2,18.3,89.7,20.3,90.2,22.6z"/>
	<path d="M163.1,31.6l1.6,0.8c0.4,0.3,0.9,0.3,1.3,0.2c0.4-0.2,0.8-0.5,0.9-0.9l6.2-11.9c0.5-1,1.1-2,1.9-2.9c0.3-0.4,0.7-0.8,1.2-1
		c0.3-0.1,0.7-0.1,1,0c0.6,0.2,1.1,0.4,1.6,0.7c0.6,0.3,1.1,0.6,1.6,1c0.3,0.3,0.5,0.6,0.6,1c0.1,0.6,0.2,1.2,0.1,1.9
		c-0.1,0.9-0.2,2-0.5,3.4c-0.6,3.5-1.1,6.4-1.4,8.4c-0.3,1.7-0.4,3.3-0.3,5c0,1.2,0.5,2.3,1.3,3.1c1.6,1.4,3.6,2.4,5.6,2.9
		c1.2,0.2,2.3-0.1,3.3-0.8c1.4-0.9,2.7-1.9,3.9-3.1c1.5-1.4,3.6-3.4,6.1-6c1-1,1.8-1.8,2.5-2.3c0.5-0.4,1-0.8,1.6-1
		c0.4-0.1,0.8-0.2,1.1-0.1c0.6,0.2,1.2,0.4,1.8,0.7c0.5,0.3,1,0.6,1.5,0.9c0.3,0.2,0.5,0.5,0.6,0.8c0.1,0.5,0.1,1.1-0.1,1.6
		c-0.3,1.1-0.8,2.2-1.3,3.2l-6.2,11.9c-0.3,0.4-0.3,0.9-0.2,1.3c0.2,0.4,0.5,0.8,0.9,1l1.6,0.8c0.3,0.2,0.6,0.3,0.9,0.3
		c0.1,0,0.3,0,0.4-0.1c0.5-0.2,0.8-0.5,1-1l6.1-11.9c1.1-2.1,2-4,2.8-5.6c0.7-1.5,1.2-3,1.4-4.7c0.1-1.4-0.2-2.9-1-4.1
		c-1-1.4-2.3-2.5-3.9-3.2c-1-0.5-2.1-0.9-3.2-1.1c-1.2-0.1-2.4,0.1-3.5,0.8c-1.4,0.8-2.7,1.8-3.9,3c-1.5,1.4-3.3,3.3-5.6,5.7
		c-1.1,1.2-2.1,2.1-2.8,2.8c-0.5,0.4-1,0.8-1.6,1c-0.3,0.1-0.6,0.1-0.9,0c-0.6-0.2-1.3-0.5-1.9-0.8c-0.6-0.3-1.2-0.6-1.8-1
		c-0.3-0.2-0.5-0.5-0.5-0.8c-0.1-0.6-0.2-1.3-0.1-1.9c0.1-0.9,0.3-2.2,0.6-3.8c0.7-3.3,1.2-5.9,1.5-7.9c0.3-1.6,0.4-3.3,0.2-4.9
		c-0.1-1.2-0.6-2.4-1.4-3.3c-0.8-0.8-1.7-1.4-2.7-1.9c-1.5-0.9-3.2-1.3-4.9-1.3c-1.4,0.1-2.8,0.6-3.9,1.6c-1.2,1.1-2.2,2.4-3,3.8
		c-0.9,1.5-1.9,3.4-3,5.5l-6.2,11.9c-0.3,0.4-0.3,0.9-0.2,1.3C162.4,31.1,162.7,31.5,163.1,31.6z"/>
	<path d="M242,105.7c1.2,0,2.3-0.2,3.4-0.5c1.8-0.6,3.8-1.3,5.9-2.2l12.2-5c0.4-0.1,0.8-0.5,1-0.9c0.1-0.4,0.1-0.9-0.1-1.3l-0.8-1.9
		c-0.2-0.8-1-1.3-1.8-1.1c-0.2,0-0.3,0.1-0.4,0.2l-12.2,5c-1.2,0.5-2.4,0.9-3.7,1.1c-0.6,0.1-1.3,0-1.9-0.3
		c-0.7-0.6-1.3-1.3-1.6-2.1c-0.6-1.2-1.3-2.8-2.1-4.8c-0.8-2-1.4-3.6-1.8-4.9c-0.3-0.9-0.4-1.8-0.3-2.7c0.1-0.6,0.5-1.2,1.1-1.5
		c1.1-0.7,2.2-1.3,3.4-1.8l12.2-5c0.4-0.1,0.8-0.5,1-0.9c0.2-0.4,0.1-0.9-0.1-1.3l-0.8-1.9c-0.1-0.4-0.4-0.8-0.9-1
		c-0.4-0.1-0.9-0.1-1.3,0.1l-12.2,5c-2.2,0.9-4.1,1.8-5.8,2.6c-1.6,0.8-3,2-4,3.5c-1,1.6-1.4,3.5-1.2,5.4c0.3,2.7,1,5.4,2.2,7.9
		c1,2.6,2.3,5,4,7.1c1.2,1.5,2.8,2.5,4.7,3C240.7,105.7,241.4,105.7,242,105.7z"/>
	<path d="M269.9,128.3l-0.5-5.9c-0.1-2.2-0.5-4.4-1-6.6c-0.4-1.5-1.1-2.9-2.1-4.1c-0.9-1-2.1-1.6-3.3-1.9c-1.3-0.2-2.7-0.3-4.1-0.2
		c-1.7,0-3.3,0.6-4.6,1.6c-1.1,0.9-1.9,2.1-2.3,3.5c-0.4,1.5-0.7,3.1-0.7,4.7c0,1.7,0,3.6,0,5.6c0.1,2.8,0,5.6-0.2,8.3
		c-0.1,0.4-0.3,1.9-0.9,1.9c-0.2,0-0.4,0-0.6-0.1c-0.2-0.2-0.4-0.6-0.5-0.9c-0.3-0.9-0.5-1.8-0.6-2.8c-0.2-1.3-0.4-2.9-0.5-4.9
		l-1.1-13.4c0-0.6-0.2-1.3-0.7-1.7c-0.5-0.4-1.2-0.5-1.8-0.3l-1.2,0.1c-0.9,0-1.8,0.3-2.6,0.8c-0.7,0.5-1.2,1.2-1.5,2.1
		c-0.3,0.9-0.5,1.9-0.5,2.9c0,1.3,0,2.6,0.1,3.9l0.5,6.4c0.2,2.2,0.5,4.5,1,6.7c0.4,1.6,1,3.1,1.9,4.4c0.8,1.1,1.9,1.9,3.2,2.4
		c1,0.3,2,0.4,3,0.4c0.4,0,0.8,0,1.2-0.1c1.7,0,3.4-0.6,4.8-1.5c1.2-0.9,2-2.1,2.5-3.5c0.5-1.6,0.7-3.3,0.7-5c0-1.9,0-4-0.1-6.4
		c-0.1-2.5-0.1-5.1,0.2-7.6c0.2-1.4,0.6-1.6,0.6-1.6c0.2,0,0.3,0,0.5,0.1c0,0,0.2,0.1,0.5,0.6c0.3,0.7,0.6,1.5,0.7,2.3
		c0.3,1.5,0.5,3.1,0.6,4.6l1.1,12.9c0,0.6,0.2,1.3,0.6,1.7c0.5,0.4,1.2,0.5,1.8,0.4l0.7-0.1c1.9,0,3.6-1.1,4.4-2.9
		C270,133.7,270.2,131.4,269.9,128.3z"/>
	<path d="M67.9,50.9c1,0,2-0.2,3-0.4c2.7-0.9,5.3-2.1,7.6-3.7c2.4-1.5,4.7-3.3,6.6-5.4c1.3-1.4,2.1-3.1,2.4-5c0.1-1.8-0.2-3.5-1-5.1
		c-0.9-1.9-2-3.7-3.1-5.5c-1.1-1.8-2.3-3.5-3.7-5.1c-1.1-1.4-2.5-2.5-4.2-3.1c-1.8-0.6-3.7-0.6-5.6,0c-2.7,0.9-5.3,2.1-7.6,3.7
		c-2.5,1.4-4.7,3.3-6.6,5.4c-1.3,1.4-2.1,3.1-2.4,5c-0.1,1.1,0,2.2,0.3,3.2c-0.7,0.6-1.3,1.3-1.8,2.1c-0.6,1-0.7,2.2-0.4,3.3
		c0.4,1.4,1.1,2.8,1.9,4c0.8,1.3,1.7,2.4,2.8,3.4c0.9,0.7,2,1.1,3.2,1c0.8-0.1,1.6-0.3,2.4-0.6c1,1.1,2.2,1.9,3.6,2.4
		C66.2,50.8,67,50.9,67.9,50.9z M62.1,46.4c-1.2-1.6-2.4-3.2-3.5-4.9c-1.1-1.7-2.1-3.5-3-5.3c-0.1-0.3-0.3-0.6-0.4-0.9l0.2-0.2
		c1.2-0.9,2.8-2,4.8-3.2s3.6-2.2,4.9-2.9c1-0.6,2.1-1,3.2-1.1c0.8-0.1,1.6,0.2,2.3,0.7c1,0.9,1.8,1.9,2.5,3c0.8,1.1,1.3,2.3,1.7,3.6
		c0.2,0.8,0.1,1.7-0.3,2.4c-0.6,1-1.4,1.8-2.4,2.5c-1.2,0.9-2.8,2-4.7,3.2c-2,1.2-3.6,2.2-5,3L62.1,46.4z"/>
	<path d="M205.6,100.1l-6.3-9.7l-0.1-0.2l-8.2-9.5c0,0-0.1-0.1-0.1-0.1l-9.8-8.9l-0.1-0.1L170,63.9l-0.1-0.1l-11.4-6.5l-0.2-0.1
		l-11.5-4.9l-0.2-0.1l-11.2-3c-0.3-0.1-0.6-0.1-0.8,0l-11.2,3l-0.2,0.1l-11.5,4.9l-0.2,0.1l-11.4,6.5l-0.1,0.1l-10.8,7.8L89,71.8
		l-9.7,8.9c0,0-0.1,0.1-0.1,0.1l-8.2,9.5l-0.1,0.2l-6.3,9.7c-0.2,0.2-0.3,0.5-0.3,0.8l-0.6,11.6v0.2l1.1,12.5v0.2l2.7,12.9
		c0,0.1,0,0.1,0,0.2l4.1,12.7l0.1,0.2l5.4,12l0.1,0.2l6.5,10.7c0,0.1,0.1,0.1,0.1,0.2l7.3,9c0.2,0.2,0.4,0,0.7,0.1l10.8,4.1
		c0.1,0,0.1,0,0.2,0.1l12.2,2.8h0.2l13.2,1.5h13.7l13.1-1.5h0.2l12.2-2.9c0.1,0,0.1,0,0.2-0.1l10.8-4.1c0.3-0.1,0.5,0.2,0.7-0.1
		l7.3-9c0-0.1,0.1-0.1,0.1-0.2l6.5-10.7l0.1-0.2l5.4-12l0.1-0.2l4.1-12.7c0-0.1,0-0.1,0-0.2l2.7-12.9v-0.2l1.1-12.5
		c0-0.1,0-0.1,0-0.2l-0.5-11.6C205.8,100.7,205.7,100.4,205.6,100.1z M203.8,108.3l-2.4-5.5l2.1-0.7L203.8,108.3z M203.8,112.3
		l-2.9,1.7l0.2-8L203.8,112.3z M203,100.6l-2.1,0.7l-1.3-5.9L203,100.6z M199.5,103.4l-0.2,9l-4.4-7.5L199.5,103.4z M76.4,119
		l-4,7.4l-1.4-9.8L76.4,119z M71.2,114.9l4.6-7.9l0.9,10.3L71.2,114.9z M77.2,120.9l2.2,10.8l-6.3-3.1L77.2,120.9z M87.6,124.3
		l3.1,11.9l-9-3.4L87.6,124.3z M81,131.2l-2.3-11.3l8.1,3L81,131.2z M95.7,98.6l1,11.7l-9.4-3.1L95.7,98.6z M95.5,95.7l-8.3-2.4
		l8.6-7.8L95.5,95.7z M108.1,99.9L98,96.4l9.7-7.9L108.1,99.9z M98.5,83.3l9.6-7l-0.4,9.5L98.5,83.3z M123.1,121.4l3.5,10.9
		l-10.7-2.6L123.1,121.4z M122.5,93.1l10.8,4.9l-10.2,6.6L122.5,93.1z M123.3,107.3l10.1,4.2l-9.3,6.7L123.3,107.3z M160.1,102.2
		l-1.3,11.8l-9.5-7.7L160.1,102.2z M148.5,104.9l0.6-11.5l10.2,7.4L148.5,104.9z M162.4,88.5l9.7,7.9l-10.2,3.4L162.4,88.5z
		 M162,76.4l9.6,7l-9.1,2.5L162,76.4z M174.4,98.6l8.4,8.6l-9.5,3.1L174.4,98.6z M174.2,85.6l8.6,7.8l-8.3,2.4L174.2,85.6z
		 M119.9,145.8l5.9,10.3l-12.4-1.4L119.9,145.8z M112.1,153.8l-5.1-11.3l11.6,2.4L112.1,153.8z M115.8,131.4l10.7,2.6l-6.3,8.7
		L115.8,131.4z M118.7,143.2l-11.7-2.4l7.2-9L118.7,143.2z M105.9,139.7l-3.9-12l11.2,3L105.9,139.7z M102.2,126l8-8.8l3.1,11.8
		L102.2,126z M101.2,124.7l-2.5-12.2l10.5,3.5L101.2,124.7z M104.3,140.1l-11-3.1l7.1-9L104.3,140.1z M92.3,135.7l-3.2-12.1
		l10.2,3.2L92.3,135.7z M104.2,141.7l-6.4,8.6l-4.5-11.7L104.2,141.7z M105.4,142.9l5.1,11.3L99,151.5L105.4,142.9z M110.5,155.9
		l-5.8,8l-5.6-10.7L110.5,155.9z M111.8,156.9l6,10l-11.9-2L111.8,156.9z M113.4,156.4l12.3,1.4l-6.2,8.8L113.4,156.4z M127.2,158.5
		l6.3,9.4l-12.4-0.8L127.2,158.5z M128.7,157.9h12.6l-6.3,9.4L128.7,157.9z M142.8,158.5l6.2,8.8l-12.5,0.7L142.8,158.5z
		 M144.3,157.7l12.3-1.4l-6.1,10.2L144.3,157.7z M163,140.8l-11.6,2.4l4.4-11.4L163,140.8z M156.9,130.7l11.2-3l-3.9,12L156.9,130.7
		z M163.1,142.4l-5.1,11.3l-6.5-8.9L163.1,142.4z M149.9,142.6l-6.3-8.7l10.7-2.6L149.9,142.6z M150.2,145.8l6.5,8.9l-12.4,1.4
		L150.2,145.8z M158.2,156.8l5.8,8l-11.9,2L158.2,156.8z M159.5,155.8l11.4-2.6l-5.6,10.7L159.5,155.8z M159.5,154.1l5.1-11.3
		l6.4,8.6L159.5,154.1z M165.7,141.7l10.9-3.1l-4.5,11.7L165.7,141.7z M165.7,140.2l3.9-12l7.1,8.9L165.7,140.2z M160.8,116
		l10.5-3.4l-2.5,12.2L160.8,116z M170.6,126.8l10.2-3.2l-3.2,12.1L170.6,126.8z M183.2,108.6l-1.8,11.9l-7.7-8.8L183.2,108.6z
		 M180.6,122l-10.3,3.2l2.5-12.2L180.6,122z M171.7,109.6l-9.2-8.3l10.2-3.4L171.7,109.6z M170.8,110.9l-10.5,3.4l1.3-11.8
		L170.8,110.9z M167.8,126.1l-11.2,3l3.1-11.8L167.8,126.1z M155.1,128.5l-7.1-8.4l10.2-3.3L155.1,128.5z M154.1,129.7l-10.7,2.6
		l3.5-10.9L154.1,129.7z M148.6,143.6l-12.1,0.7l5.8-9.4L148.6,143.6z M148.6,145.2l-5.9,10.3l-6.3-9.7L148.6,145.2z M141.3,156.2
		h-12.7l6.3-9.7L141.3,156.2z M127.2,155.5l-5.9-10.3l12.2,0.7L127.2,155.5z M121.4,143.6l6.3-8.7l5.7,9.4L121.4,143.6z
		 M114.9,128.5l-3.1-11.7l10.2,3.3L114.9,128.5z M111.2,114.1l-1.3-11.8l10.8,4.1L111.2,114.1z M110.6,100.8l10.2-7.4l0.6,11.5
		L110.6,100.8z M119.9,92l-10.2,7.4L109.2,88L119.9,92z M110.2,86.7l10.5-6.8l0.1,10.7L110.2,86.7z M109.7,114.4L99.2,111l9.2-8.4
		L109.7,114.4z M107.4,101.3l-9.2,8.4l-1-11.8L107.4,101.3z M99.7,125.2L89.4,122l7.8-8.9L99.7,125.2z M96.2,111.8l-7.7,8.8
		l-1.8-11.9L96.2,111.8z M90.7,137.9l-5.2,7.9l-3.6-11.2L90.7,137.9z M91.7,139.3l4.4,11.4l-9.7-3.4L91.7,139.3z M96.3,152.4
		l-4.8,7.2l-4.8-10.5L96.3,152.4z M97.4,153.6l5.6,10.5l-10.3-3.2L97.4,153.6z M103.2,165.8l-4.4,6.2l-5.6-9.3L103.2,165.8z
		 M104.5,166.8l6.1,8.6l-10.6-2.5L104.5,166.8z M106.3,166.5l11.6,2l-5.4,6.8L106.3,166.5z M119.4,169.3l6.2,8.1l-11.5-1.3
		L119.4,169.3z M121.1,168.8l12.2,0.7l-6,7.5L121.1,168.8z M135,170.1l5.9,7.4h-11.8L135,170.1z M136.6,169.5l12.2-0.7l-6.3,8.2
		L136.6,169.5z M150.6,169.3l5.3,6.8l-11.5,1.3L150.6,169.3z M152.1,168.5l11.6-2l-6.3,8.8L152.1,168.5z M165.5,166.8l4.5,6.2
		l-10.6,2.5L165.5,166.8z M166.8,165.8l10.1-3.2l-5.7,9.3L166.8,165.8z M167.1,164.1l5.5-10.5l4.8,7.2L167.1,164.1z M173.7,152.4
		l9.6-3.4l-4.8,10.5L173.7,152.4z M173.9,150.7l4.4-11.4l5.3,8L173.9,150.7z M179.3,137.9l8.9-3.3l-3.7,11.2L179.3,137.9z
		 M179.3,136.2l3.1-11.9l5.8,8.5L179.3,136.2z M183.3,122.9l8.1-3l-2.3,11.3L183.3,122.9z M185.1,106.4l0.1-10.6l7.1,8.2
		L185.1,106.4z M192.8,105.6l-0.9,10.8l-6.3-8.5L192.8,105.6z M191.2,118.3l-8.2,3l1.7-11.7L191.2,118.3z M183.5,105.6l-8.2-8.4
		l8.4-2.4L183.5,105.6z M175.2,84.2L182,83l1.2,8.6L175.2,84.2z M174,82.7l-1.2-7.7l8.1,6.6L174,82.7z M172.8,95l-9.5-7.8l9.2-2.6
		L172.8,95z M163.1,75.2L171,74l1.2,7.9L163.1,75.2z M161.8,73.8l-1-6.9l8.7,5.6L161.8,73.8z M160.8,88l-0.5,11.5L150.1,92L160.8,88
		z M149.2,90.6l0.1-10.7l10.5,6.8L149.2,90.6z M150.4,78.7l9.9-2.9l0.4,9.6L150.4,78.7z M149.3,77.4l-0.3-8.6l10,5.7L149.3,77.4z
		 M148.8,66.4l-0.6-5.9l8.9,4.5L148.8,66.4z M148.4,107.6l9.4,7.6l-10.2,3.3L148.4,107.6z M147.6,90.4l-10.8-6.1l10.9-4.6
		L147.6,90.4z M147,104.6L136.7,98l10.8-4.9L147,104.6z M146,118.2l-9.3-6.7l10.2-4.2L146,118.2z M142,131.6l-5.7-7.6l9-2.9
		L142,131.6z M135,143.6l-5.7-9.4h11.5L135,143.6z M128.1,131.6l-3.4-10.6l9,2.9L128.1,131.6z M125.1,119.5l9-6.6v9.5L125.1,119.5z
		 M124,105.9l10.2-6.6v10.8L124,105.9z M123.3,91.7l10.8-6.2v11L123.3,91.7z M132.9,71.9l-10.6,5.2l0.3-8.7L132.9,71.9z M124.2,67.3
		l10-4.2v7.6L124.2,67.3z M134.2,73.1v10l-10.8-4.6L134.2,73.1z M133.2,84.3l-10.8,6.1l-0.1-10.8L133.2,84.3z M122.5,118.6
		l-10.2-3.3l9.4-7.6L122.5,118.6z M121.2,66.4l-8.3-1.4l8.9-4.4L121.2,66.4z M120.7,77.4l-9.7-2.9l10-5.7L120.7,77.4z M119.5,78.8
		l-10.3,6.7l0.4-9.6L119.5,78.8z M108.2,73.8l-7.7-1.2l8.8-5.6L108.2,73.8z M106.8,75.3l-9.1,6.6L99,74L106.8,75.3z M106.7,87.3
		L97.2,95l0.3-10.3L106.7,87.3z M96,82.7l-6.8-1.1l8.1-6.6L96,82.7z M94.9,84.2l-8.2,7.4L88,83L94.9,84.2z M94.8,97.2l-8.2,8.4
		l-0.1-10.8L94.8,97.2z M87,121.2l-8.2-3l6.4-8.7L87,121.2z M85,92.7l-5.8-1.2l6.9-7.1L85,92.7z M85,106.4l-7.2-2.3l7.1-8.2
		L85,106.4z M84.5,107.9l-6.3,8.5l-0.9-10.9L84.5,107.9z M79.5,133.6l-3.5,7l-2.7-10.1L79.5,133.6z M80.4,135.3l3.5,10.7l-7.1-3.6
		L80.4,135.3z M84.2,148l-3.2,6.2l-3.8-9.7L84.2,148z M85.2,149.5l4.5,10l-7.8-3.8L85.2,149.5z M90.2,161.6l-3,5.1l-4.6-8.8
		L90.2,161.6z M91.4,162.8l5.3,8.8l-8.3-3.7L91.4,162.8z M97.5,173.8l-2.8,3.9l-5.1-7.4L97.5,173.8z M98.8,174.7l5.8,6.5l-8.6-2.6
		L98.8,174.7z M101,174.8l10.1,2.4l-4,4.4L101,174.8z M112.6,177.8l5.8,5.6l-9.8-1.2L112.6,177.8z M114.7,177.6l11,1.2l-4.9,4.6
		L114.7,177.6z M127.4,179.4l5.5,5.1l-10.4-0.5L127.4,179.4z M129.3,179.1h11.3l-5.6,5.2L129.3,179.1z M142.5,179.4l4.9,4.5
		l-10.4,0.6L142.5,179.4z M144.3,178.9l11-1.2l-6,5.8L144.3,178.9z M157.4,177.8l3.9,4.4l-9.8,1.2L157.4,177.8z M158.9,177.1
		l10.1-2.3l-6.1,6.8L158.9,177.1z M171.2,174.7l2.8,3.9l-8.6,2.6L171.2,174.7z M172.5,173.7l7.9-3.5l-5.1,7.4L172.5,173.7z
		 M173.2,171.6l5.3-8.8l3,5.2L173.2,171.6z M179.7,161.5l7.6-3.7l-4.6,8.8L179.7,161.5z M180.2,159.5l4.6-10l3.2,6.2L180.2,159.5z
		 M185.9,148l7-3.5l-3.8,9.7L185.9,148z M186.1,146.1l3.5-10.7l3.6,7.1L186.1,146.1z M190.5,133.6l6.2-3.1l-2.7,10.1L190.5,133.6z
		 M190.5,131.8l2.3-10.8l4.1,7.7L190.5,131.8z M193.5,119l5.4-2.4l-1.4,9.8L193.5,119z M193.3,117.3l0.9-10.3l4.6,7.9L193.3,117.3z
		 M194.3,103.3l-0.9-8.7l5.4,7.2L194.3,103.3z M198.7,98.9l-4.8-6.3l3.4-0.4L198.7,98.9z M196.2,90.7l-3.2,0.4l-1.6-6L196.2,90.7z
		 M191.7,93l0.9,9.1l-6.8-7.8L191.7,93z M185.1,92.7l-1.2-8.3l6.9,7.1L185.1,92.7z M190.8,89.3l-6.2-6.4l4.5-0.1L190.8,89.3z
		 M187.7,81.2l-4.3,0.1l-1.7-5.7L187.7,81.2z M181.2,79.8l-7.3-5.9h5.5L181.2,79.8z M177.5,72.3h-5.3l-1.6-5L177.5,72.3z
		 M170.2,71.3l-7.9-5.1l6.2-0.1L170.2,71.3z M166.2,64.5l-5.9,0.1l-1.2-4.2L166.2,64.5z M159,66.3l1,7l-9.6-5.5L159,66.3z
		 M158.4,63.8l-8-4l6.7-0.3L158.4,63.8z M154.2,58l-6.3,0.3l-0.6-3.2L154.2,58z M147.7,77.1l-10.6-5.2l10.2-3.4L147.7,77.1z
		 M147.2,66.1l-9.5-4l8.9-1.9L147.2,66.1z M146.2,58l-7.5-2.6l6.8-0.7L146.2,58z M135.8,51.8l6,1.6l-6,0.6V51.8z M135.8,56.1l8.5,3
		l-8.5,1.8V56.1z M135.8,63.1l10,4.2l-10,3.4V63.1z M146.6,78.4L135.8,83l0-10L146.6,78.4z M135.8,85.6l10.8,6.2l-10.8,4.9V85.6z
		 M146,105.9l-10.2,4.2l-0.1-10.8L146,105.9z M135.8,112.9l9,6.6l-9,2.9V112.9z M135,124.9l5.6,7.7h-11.1L135,124.9z M125.7,59
		l8.5-3v4.8L125.7,59z M134.2,51.8V54l-6-0.6L134.2,51.8z M124.5,54.7l6.8,0.7l-7.5,2.7L124.5,54.7z M123.5,60.2l8.9,1.9l-9.5,4
		L123.5,60.2z M122.8,55.2l-0.7,3.2l-6.3-0.4L122.8,55.2z M112.9,59.5l6.7,0.3l-8,4L112.9,59.5z M119.6,67.8l-9.6,5.4l1-7
		L119.6,67.8z M111,60.3l-1.2,4.2l-5.9-0.1L111,60.3z M101.4,66l6.2,0.1l-7.9,5.1L101.4,66z M99.4,67.3l-1.6,5h-5.2L99.4,67.3z
		 M90.6,73.8h5.5l-7.3,5.9L90.6,73.8z M88.4,75.6l-1.7,5.7l-4.3-0.1L88.4,75.6z M80.9,82.7l4.5,0.1l-6.2,6.4L80.9,82.7z M84.1,94.2
		l-6.8,7.8l0.9-9L84.1,94.2z M78.6,85.1l-1.6,6l-3.3-0.4L78.6,85.1z M72.8,92.3l3.3,0.4L71.3,99L72.8,92.3z M76.5,94.8l-0.9,8.7
		l-4.5-1.5L76.5,94.8z M75.1,105l-4.4,7.5l-0.2-9L75.1,105z M70.4,95.5l-1.3,5.9l-2.1-0.7L70.4,95.5z M69.2,113.9l-2.9-1.7L69,106
		L69.2,113.9z M66.5,102.1l2.1,0.7l-2.4,5.5L66.5,102.1z M66.2,114.1l2.8,1.6l-2.2,5.8L66.2,114.1z M67.3,124.8l2.4-6.3l1.3,8.8
		L67.3,124.8z M67.5,126.9l3.6,2.4l-1.9,5.6L67.5,126.9z M71.9,131.8l2.4,9.1l-4.4-3.2L71.9,131.8z M70.5,140l4.3,3.1l-1.6,5
		L70.5,140z M75.7,145.1l3.4,8.8l-5.1-3.5L75.7,145.1z M75,153l4.9,3.4l-1.5,4.1L75,153z M81,158.1l4.1,7.9l-5.7-3.7L81,158.1z
		 M81,165.2l5.2,3.4l-1.4,3L81,165.2z M87.4,170l4.5,6.5l-5.9-3.5L87.4,170z M88.3,176.3l5.2,3l-1.3,1.8L88.3,176.3z M93.5,182
		l1.3-1.8l4.5,3.6L93.5,182z M97.9,180.8l7.6,2.3L103,185L97.9,180.8z M104.7,185.6l2.4-2.2l4.9,3.9L104.7,185.6z M110,183.6
		l8.8,1.5l-3.5,2.7L110,183.6z M117.3,188.3l3.4-2.7l4.8,3.6L117.3,188.3z M123.3,185.6l9.4,0.5l-4.4,3.2L123.3,185.6z M130.8,189.5
		l4.2-3.1l4.2,3.1H130.8z M141.7,189.3l-4.4-3.2l9.4-0.5L141.7,189.3z M144.5,189.2l4.7-3.6l3.4,2.7L144.5,189.2z M154.7,187.8
		l-3.5-2.7l8.8-1.5L154.7,187.8z M158,187.3l4.9-3.9l2.4,2.2L158,187.3z M167,184.9l-2.5-1.8l7.6-2.3L167,184.9z M170.7,183.7
		l4.5-3.6l1.3,1.8L170.7,183.7z M177.8,181l-1.3-1.8l5.2-3L177.8,181z M178.1,176.5l4.5-6.5l1.4,3.1L178.1,176.5z M185.2,171.6
		l-1.4-3l5.2-3.4L185.2,171.6z M184.9,166l4.1-7.9l1.5,4.2L184.9,166z M191.6,160.5l-1.5-4.1l4.9-3.4L191.6,160.5z M190.9,153.9
		l3.4-8.8l1.7,5.2L190.9,153.9z M196.9,148l-1.7-5l4.3-3.1L196.9,148z M195.7,140.8l2.4-9.1l2,5.9L195.7,140.8z M200.9,134.9
		l-1.9-5.6l3.6-2.4L200.9,134.9z M199,127.3l1.3-8.8l2.4,6.3L199,127.3z M203.2,121.5l-2.2-5.8l2.9-1.6L203.2,121.5z"/>
	<path d="M127.9,21.6c0.7,0.4,1.5,0.7,2.3,0.8c0.2,1.4,0.8,2.8,1.6,4c0.5,0.7,1.2,1.3,1.9,1.8c0.8,0.6,1.8,1,2.7,1.3
		c2.7,0.8,5.6,1.2,8.4,1.2c2.8,0.1,5.7-0.1,8.5-0.8c1.8-0.4,3.5-1.4,4.8-2.8c1.1-1.4,1.8-3,2-4.8c0.3-2.1,0.4-4.2,0.5-6.3
		c0.1-2.1,0-4.2-0.2-6.3c-0.1-1.8-0.7-3.5-1.8-4.9c-1.2-1.6-2.8-2.9-4.7-3.5c-2.7-0.8-5.6-1.2-8.4-1.2c-2.8-0.1-5.7,0.1-8.5,0.8
		c-1.8,0.5-3.5,1.5-4.8,2.9c-0.7,1-1.2,2.1-1.5,3.3c-0.9,0.1-1.8,0.4-2.7,0.8c-1,0.5-1.8,1.4-2.2,2.5c-0.4,1.4-0.6,2.9-0.6,4.3
		c-0.1,1.5,0.1,3,0.4,4.4C126.1,20.1,126.9,21,127.9,21.6z M131.7,9.1c0-0.3,0.1-0.6,0.2-0.9h0.3c1.5-0.1,3.4-0.1,5.8,0
		c2.3,0,4.2,0.1,5.7,0.3c1.1,0.1,2.3,0.4,3.3,0.9c0.7,0.4,1.3,1.1,1.5,1.9c0.3,1.3,0.5,2.6,0.4,3.9c0,1.3-0.2,2.6-0.6,3.9
		c-0.3,0.8-0.8,1.4-1.6,1.8c-1.1,0.5-2.2,0.7-3.3,0.7c-1.5,0.1-3.4,0.1-5.7,0s-4.2-0.2-5.8-0.3l-0.5-0.1c-0.2-2-0.2-4-0.2-5.9
		C131.3,13.2,131.4,11.2,131.7,9.1z"/>
	<path d="M237.7,68.3c1.5-1.4,3-3,4.3-4.6c1.1-1.3,1.9-3,2.2-4.7c0.2-1.9-0.2-3.8-1.1-5.5c-1.4-2.5-3.1-4.8-5.1-6.8
		c-1.9-2.1-4.1-3.9-6.5-5.4c-1.6-1-3.5-1.5-5.5-1.3c-1.1,0.1-2.1,0.4-3.1,0.9c-0.7-0.6-1.5-1-2.4-1.4c-1.1-0.4-2.3-0.3-3.3,0.2
		c-1.3,0.7-2.5,1.6-3.5,2.6c-1.1,1-2,2.1-2.8,3.4c-0.6,1-0.7,2.2-0.4,3.3c0.2,0.8,0.6,1.6,1.1,2.2c-0.9,1.2-1.4,2.6-1.7,4
		c-0.1,0.9-0.1,1.7,0.1,2.6c0.2,1,0.5,2,1,2.9c1.4,2.5,3.1,4.8,5.2,6.8c1.9,2.1,4.1,3.9,6.5,5.4c1.6,1,3.5,1.4,5.4,1.3
		c1.7-0.2,3.4-0.9,4.8-2C234.6,71.1,236.2,69.7,237.7,68.3z M232.4,56.3c-0.7,1.2-1.5,2.2-2.5,3.1c-0.9,0.9-2,1.7-3.2,2.4
		c-0.7,0.4-1.6,0.4-2.4,0.2c-1.1-0.4-2.1-1-2.9-1.8c-1.1-1-2.5-2.3-4.1-4c-1.6-1.7-2.9-3.1-3.9-4.3l-0.3-0.4c1.3-1.5,2.7-3,4.1-4.3
		c1.5-1.4,3-2.8,4.6-4c0.3-0.2,0.5-0.4,0.8-0.5l0.2,0.2c1.1,1,2.5,2.4,4.1,4c1.6,1.6,2.9,3.1,3.9,4.2c0.8,0.9,1.4,1.9,1.7,3
		C232.9,54.8,232.8,55.6,232.4,56.3z"/>
</g>
</svg>
