<svg id="Camada_1" data-name="Camada 1" xmlns="http://www.w3.org/2000/svg" viewBox="0 0 439.12 36.94"><title>autonomous_logoblckspell</title><path d="M33.2,5a12.08,12.08,0,0,0-5.8-3.81A30,30,0,0,0,18.07,0,29.72,29.72,0,0,0,8.69,1.18,11.94,11.94,0,0,0,2.94,5,12.53,12.53,0,0,0,.45,11.09,53.91,53.91,0,0,0,0,18.47V33.74a2.65,2.65,0,0,0,.69,2,2.65,2.65,0,0,0,2,.69h2a2.67,2.67,0,0,0,2-.7,2.66,2.66,0,0,0,.68-2v-5.1H28.79v5.1a2.41,2.41,0,0,0,2.67,2.67h2a2.41,2.41,0,0,0,2.67-2.67V18.47a53.89,53.89,0,0,0-.46-7.38A12.52,12.52,0,0,0,33.2,5ZM28.79,18.61H7.35v-.14a13,13,0,0,1,.46-4A2.47,2.47,0,0,1,8.93,13,7.6,7.6,0,0,1,12,12.23c1.6-.13,3.64-.2,6.07-.2s4.47.07,6.06.2A7.51,7.51,0,0,1,27.2,13a2.48,2.48,0,0,1,1.13,1.43,13.1,13.1,0,0,1,.46,4Z" transform="translate(0 0)"/><path d="M75.31.8H73a2.69,2.69,0,0,0-2,.68,2.67,2.67,0,0,0-.69,2v15a18.33,18.33,0,0,1-.37,4.16A2.15,2.15,0,0,1,69.07,24a5.56,5.56,0,0,1-2.6.7c-1.48.13-3.46.2-5.89.2s-4.4-.07-5.88-.2A5.86,5.86,0,0,1,52,24a2,2,0,0,1-.82-1.33,19,19,0,0,1-.35-4.2v-15a2.65,2.65,0,0,0-.69-2,2.65,2.65,0,0,0-2-.69H45.85a2.65,2.65,0,0,0-2,.69,2.65,2.65,0,0,0-.69,2v15c0,2.73.1,5.17.28,7.27a12.49,12.49,0,0,0,2.06,6.12,10.69,10.69,0,0,0,5.54,3.9,29.92,29.92,0,0,0,9.52,1.18,30,30,0,0,0,9.49-1.18,10.76,10.76,0,0,0,5.58-3.9,12.42,12.42,0,0,0,2.06-6.12c.18-2.11.27-4.55.27-7.27v-15a2.68,2.68,0,0,0-.68-2A2.66,2.66,0,0,0,75.31.8Z" transform="translate(0 0)"/><path d="M116.75,2.28c-1.63-1.17-4.24-1.74-8-1.74H93.39a23.41,23.41,0,0,0-4.54.37,9,9,0,0,0-3.44,1.36,5.94,5.94,0,0,0-2.13,2.6,8.37,8.37,0,0,0-.59,3.29V9.1a3.4,3.4,0,0,0,.78,2.55,3.47,3.47,0,0,0,2.55.79H97.08v21.3a2.41,2.41,0,0,0,2.67,2.67h2.68a2.41,2.41,0,0,0,2.67-2.67V12.44h11.05a3.44,3.44,0,0,0,2.55-.79,3.36,3.36,0,0,0,.79-2.55V8.16A6.83,6.83,0,0,0,116.75,2.28Z" transform="translate(0 0)"/><path d="M203.06.67h-2a2.66,2.66,0,0,0-2,.69,2.64,2.64,0,0,0-.69,2V18.2a21.65,21.65,0,0,1-.32,4.23,4,4,0,0,1-.65,1.68,1,1,0,0,1-.55.37,9.69,9.69,0,0,1-1.84.16,7.69,7.69,0,0,1-1.93-.19,1.36,1.36,0,0,1-.65-.47,6.45,6.45,0,0,1-1-1.88c-.39-1.06-.88-2.52-1.44-4.36-1-3.38-1.93-6-2.67-8.17A27.06,27.06,0,0,0,185,4.26a8,8,0,0,0-3.33-3.17,10,10,0,0,0-4.23-.82,11.75,11.75,0,0,0-6,1.31,8,8,0,0,0-3.43,4,18.23,18.23,0,0,0-1.11,5.69c-.11,2-.17,4.47-.17,7.17V33.74a2.41,2.41,0,0,0,2.67,2.67h2a2.41,2.41,0,0,0,2.67-2.67V18.47a20.53,20.53,0,0,1,.32-4.15,3.58,3.58,0,0,1,.62-1.56.83.83,0,0,1,.51-.32,11.71,11.71,0,0,1,1.9-.14,9.62,9.62,0,0,1,2,.16,1.06,1.06,0,0,1,.58.36,6.17,6.17,0,0,1,1,1.75c.4,1,.89,2.41,1.45,4.21,1,3.41,1.94,6.24,2.7,8.39a29,29,0,0,0,2.43,5.4,8.19,8.19,0,0,0,3.25,3.22,9.38,9.38,0,0,0,4.24.88,11.46,11.46,0,0,0,6-1.36,8.06,8.06,0,0,0,3.4-4.13,19.26,19.26,0,0,0,1.11-5.77c.11-2.09.17-4.52.17-7.21V3.34a2.69,2.69,0,0,0-.68-2A2.67,2.67,0,0,0,203.06.67Z" transform="translate(0 0)"/><path d="M310.63,5.61a7.94,7.94,0,0,0-3.42-4,11.76,11.76,0,0,0-6-1.31,12.67,12.67,0,0,0-4,.57,7.09,7.09,0,0,0-3.49,2.89A24.48,24.48,0,0,0,291.23,9c-.78,2.16-1.67,5.13-2.65,8.8-.52,1.8-1,3.21-1.35,4.17a5.33,5.33,0,0,1-.89,1.63.81.81,0,0,1-.53.26,20.69,20.69,0,0,1-4.45,0,.76.76,0,0,1-.5-.27A5.07,5.07,0,0,1,280,22c-.37-1-.82-2.37-1.34-4.16C277.58,14,276.7,11.16,276,9a23.4,23.4,0,0,0-2.44-5.28A7.05,7.05,0,0,0,270,.84a12.67,12.67,0,0,0-4-.57,11.72,11.72,0,0,0-6,1.31,8,8,0,0,0-3.43,4,18.17,18.17,0,0,0-1.11,5.69c-.11,2.06-.17,4.47-.17,7.17V33.74A2.41,2.41,0,0,0,258,36.41h2a2.41,2.41,0,0,0,2.67-2.67V18.47a17.09,17.09,0,0,1,.31-3.75,3.05,3.05,0,0,1,.54-1.3,1.09,1.09,0,0,1,.6-.31A11.71,11.71,0,0,1,266,13a9.34,9.34,0,0,1,2,.18,1.46,1.46,0,0,1,.74.44,4.94,4.94,0,0,1,.94,1.6c.38.9.81,2.11,1.28,3.6,1.2,3.93,2.21,7.05,3,9.29a26.48,26.48,0,0,0,2.42,5.33,6.21,6.21,0,0,0,3.39,2.81,16.4,16.4,0,0,0,7.63,0,6.28,6.28,0,0,0,3.39-2.81,26.38,26.38,0,0,0,2.41-5.34c.79-2.22,1.8-5.35,3-9.27.47-1.48.9-2.7,1.28-3.61a5.34,5.34,0,0,1,.94-1.6,1.49,1.49,0,0,1,.75-.44,9.3,9.3,0,0,1,2-.18,11.54,11.54,0,0,1,1.9.14,1.06,1.06,0,0,1,.6.31,2.91,2.91,0,0,1,.54,1.3,17,17,0,0,1,.32,3.75V33.74a2.4,2.4,0,0,0,2.67,2.67h2a2.4,2.4,0,0,0,2.67-2.67V18.47c0-2.68-.05-5.1-.17-7.17A17.5,17.5,0,0,0,310.63,5.61Z" transform="translate(0 0)"/><path d="M393.61.8h-2.35a2.68,2.68,0,0,0-2,.68,2.67,2.67,0,0,0-.69,2v15a17.77,17.77,0,0,1-.37,4.16,2.15,2.15,0,0,1-.86,1.38,5.56,5.56,0,0,1-2.6.7c-1.48.13-3.46.2-5.88.2s-4.41-.07-5.89-.2a5.91,5.91,0,0,1-2.66-.71,2,2,0,0,1-.82-1.33,19.64,19.64,0,0,1-.35-4.2v-15a2.67,2.67,0,0,0-.68-2,2.66,2.66,0,0,0-2-.69h-2.34a2.69,2.69,0,0,0-2,.69,2.64,2.64,0,0,0-.68,2v15c0,2.73.09,5.18.27,7.27a12.42,12.42,0,0,0,2.06,6.12,10.73,10.73,0,0,0,5.54,3.9,38.87,38.87,0,0,0,19,0,10.72,10.72,0,0,0,5.58-3.9A12.42,12.42,0,0,0,396,25.74c.18-2.11.28-4.55.28-7.27v-15a2.64,2.64,0,0,0-.69-2A2.64,2.64,0,0,0,393.61.8Z" transform="translate(0 0)"/><path d="M437.76,19.3a8.55,8.55,0,0,0-4.13-3.42,20.69,20.69,0,0,0-5.82-1.31c-2.11-.2-4.58-.37-7.32-.51a47.49,47.49,0,0,1-8.46-1,6.51,6.51,0,0,1-.94-.32,1.62,1.62,0,0,1,.26-.12,9.79,9.79,0,0,1,2.51-.53,46.72,46.72,0,0,1,5.19-.22h14.73a3.46,3.46,0,0,0,2.55-.78,3.49,3.49,0,0,0,.79-2.56v-.8a6.26,6.26,0,0,0-3.23-5.95C432.12.86,429.46.4,425.74.4h-6.69a42.31,42.31,0,0,0-7.71.57,11.94,11.94,0,0,0-5.14,2.1,7.82,7.82,0,0,0-2.73,4,17.28,17.28,0,0,0-.62,4.86,10.15,10.15,0,0,0,1.49,5.81A8.93,8.93,0,0,0,408.41,21a20.24,20.24,0,0,0,5.44,1.27c1.91.21,4.07.38,6.41.51a69.12,69.12,0,0,1,9.34,1,4,4,0,0,1,1.5.56s0,0,0,0a2.58,2.58,0,0,1-.71.27,16.21,16.21,0,0,1-3.08.4c-1.44.09-3.32.13-5.6.13h-15.4a3.43,3.43,0,0,0-2.56.79,3.41,3.41,0,0,0-.78,2.55v1.34a6.61,6.61,0,0,0,.81,3.4,5.55,5.55,0,0,0,2.53,2.21,11.77,11.77,0,0,0,3.49.87,41.74,41.74,0,0,0,4.54.21h7.37a48.38,48.38,0,0,0,7.79-.53A15,15,0,0,0,435,34.13a8,8,0,0,0,3.28-3.8,13.51,13.51,0,0,0,.84-5A11.28,11.28,0,0,0,437.76,19.3Z" transform="translate(0 0)"/><path d="M160.18,6.33A10.43,10.43,0,0,0,155,2.85a32.81,32.81,0,0,0-9.46-1.34,32.69,32.69,0,0,0-9.51.85,10.44,10.44,0,0,0-5.36,3.21A9.85,9.85,0,0,0,129,8.75a9.13,9.13,0,0,0-3,.84,4.88,4.88,0,0,0-2.47,2.83,15.8,15.8,0,0,0-.73,4.86,16,16,0,0,0,.47,4.9,5,5,0,0,0,2.33,3,9.4,9.4,0,0,0,2.63.93A10.47,10.47,0,0,0,130,30.61a8.44,8.44,0,0,0,2.12,2,12.89,12.89,0,0,0,3.07,1.49,32.75,32.75,0,0,0,9.46,1.34,32.73,32.73,0,0,0,9.51-.85,10.37,10.37,0,0,0,5.36-3.21A11,11,0,0,0,161.78,26a62.48,62.48,0,0,0,.55-7.07h0a62.66,62.66,0,0,0-.19-7.08A10.84,10.84,0,0,0,160.18,6.33Zm-11.72,16a3.56,3.56,0,0,1-1.78,2,9.65,9.65,0,0,1-3.75.8c-1.66.09-3.83.1-6.44,0s-4.77-.18-6.46-.36l-.5-.06a61.58,61.58,0,0,1-.16-6.72,59.25,59.25,0,0,1,.54-6.88c.05-.36.11-.71.19-1l.31,0c1.69-.09,3.86-.1,6.47,0s4.76.19,6.43.36a9.79,9.79,0,0,1,3.71,1,3.57,3.57,0,0,1,1.67,2.11,14,14,0,0,1,.44,4.41A14,14,0,0,1,148.46,22.35Z" transform="translate(0 0)"/><path d="M248.14,6.07A10.43,10.43,0,0,0,243,2.58a41.6,41.6,0,0,0-19-.49,10.52,10.52,0,0,0-5.37,3.22,10,10,0,0,0-1.71,3.17,9.3,9.3,0,0,0-3,.84,4.93,4.93,0,0,0-2.48,2.83,15.86,15.86,0,0,0-.72,4.87,15.62,15.62,0,0,0,.47,4.89,4.9,4.9,0,0,0,2.33,3,8.88,8.88,0,0,0,2.63.93A10.47,10.47,0,0,0,218,30.34a8.47,8.47,0,0,0,2.12,2,13.49,13.49,0,0,0,3.07,1.49,32.72,32.72,0,0,0,9.45,1.33,33.21,33.21,0,0,0,9.52-.84,10.49,10.49,0,0,0,5.36-3.22,10.82,10.82,0,0,0,2.23-5.39,60.23,60.23,0,0,0,.55-7.06h0a60.75,60.75,0,0,0-.18-7.09A10.77,10.77,0,0,0,248.14,6.07Zm-11.72,16a3.56,3.56,0,0,1-1.78,2,9.91,9.91,0,0,1-3.75.81c-1.67.08-3.83.09-6.44,0s-4.78-.19-6.46-.37l-.5-.05a59.29,59.29,0,0,1-.16-6.72,57.47,57.47,0,0,1,.53-6.89c0-.36.12-.71.2-1.05l.31,0c1.68-.08,3.86-.09,6.47,0s4.76.19,6.43.37a9.56,9.56,0,0,1,3.7,1,3.5,3.5,0,0,1,1.67,2.1,13.79,13.79,0,0,1,.44,4.42A14,14,0,0,1,236.42,22.08Z" transform="translate(0 0)"/><path d="M354.33,5.24a10.47,10.47,0,0,0-5.19-3.49,42,42,0,0,0-19-.49,10.49,10.49,0,0,0-5.36,3.22,10,10,0,0,0-1.72,3.17,9.64,9.64,0,0,0-3,.84,5,5,0,0,0-2.47,2.83,15.86,15.86,0,0,0-.72,4.87,15.69,15.69,0,0,0,.47,4.9A4.93,4.93,0,0,0,319.7,24a8.81,8.81,0,0,0,2.63.93,10.48,10.48,0,0,0,1.84,4.54,8.6,8.6,0,0,0,2.11,2A13.28,13.28,0,0,0,329.35,33a32.86,32.86,0,0,0,9.46,1.33,32.75,32.75,0,0,0,9.51-.84,10.45,10.45,0,0,0,5.36-3.22,10.7,10.7,0,0,0,2.24-5.39,60.05,60.05,0,0,0,.55-7.06h0a60.4,60.4,0,0,0-.19-7.08A10.86,10.86,0,0,0,354.33,5.24Zm-11.72,16a3.6,3.6,0,0,1-1.78,2,9.54,9.54,0,0,1-3.75.81c-1.67.09-3.84.1-6.44,0s-4.78-.19-6.47-.36l-.49-.06a59.1,59.1,0,0,1-.17-6.72,59.44,59.44,0,0,1,.54-6.89c.05-.36.12-.71.2-1.05h.3c1.69-.09,3.87-.1,6.48,0s4.76.19,6.42.36a9.61,9.61,0,0,1,3.71,1,3.54,3.54,0,0,1,1.67,2.1,13.83,13.83,0,0,1,.44,4.42A13.92,13.92,0,0,1,342.61,21.25Z" transform="translate(0 0)"/></svg>