<?xml version="1.0" encoding="utf-8"?>
<!-- Generator: Adobe Illustrator 23.1.1, SVG Export Plug-In . SVG Version: 6.00 Build 0)  -->
<svg version="1.1" id="Camada_1" xmlns="http://www.w3.org/2000/svg" xmlns:xlink="http://www.w3.org/1999/xlink" x="0px" y="0px"
	 viewBox="0 0 527.8 63.7" style="enable-background:new 0 0 527.8 63.7;" xml:space="preserve">
<style type="text/css">
	.st0{fill:#F2F2F2;}
</style>
<title>autonomous_logoblckline</title>
<g>
	<path class="st0" d="M121.8,17.1c-1.5-1.8-3.5-3.1-5.8-3.8c-3-0.9-6.2-1.3-9.3-1.2c-3.2-0.1-6.3,0.3-9.4,1.2
		c-2.2,0.7-4.2,2-5.8,3.8c-1.4,1.8-2.2,3.9-2.5,6.1c-0.3,2.4-0.5,4.9-0.4,7.4v15.3c-0.2,1.3,0.8,2.5,2.1,2.7c0.2,0,0.4,0,0.6,0h2
		c0.7,0.1,1.5-0.2,2-0.7s0.7-1.3,0.7-2v-5.1h21.4v5.1c-0.2,1.3,0.8,2.5,2.1,2.7c0.2,0,0.4,0,0.6,0h2c0.7,0.1,1.5-0.2,2-0.7
		s0.7-1.3,0.7-2V30.6c0-2.5-0.1-4.9-0.5-7.4C124.1,21,123.2,18.9,121.8,17.1z M117.4,30.7H96v-0.1c-0.1-1.3,0.1-2.7,0.5-4
		c0.2-0.6,0.6-1.1,1.1-1.4c1-0.5,2-0.7,3.1-0.8c1.6-0.1,3.6-0.2,6.1-0.2c2.4,0,4.5,0.1,6.1,0.2c1.1,0,2.1,0.3,3.1,0.8
		c0.5,0.3,0.9,0.8,1.1,1.4c0.4,1.3,0.5,2.7,0.5,4L117.4,30.7z"/>
	<path class="st0" d="M164,12.9h-2.3c-0.7-0.1-1.5,0.2-2,0.7s-0.7,1.3-0.7,2v15c0,1.4-0.1,2.8-0.4,4.2c-0.1,0.6-0.4,1-0.9,1.4
		c-0.8,0.4-1.7,0.7-2.6,0.7c-1.5,0.1-3.5,0.2-5.9,0.2s-4.4-0.1-5.9-0.2c-0.9,0-1.8-0.3-2.6-0.7c-0.4-0.3-0.7-0.8-0.8-1.3
		c-0.3-1.4-0.4-2.8-0.4-4.2v-15c0.1-0.7-0.2-1.5-0.7-2s-1.3-0.7-2-0.7h-2.3c-0.7-0.1-1.5,0.2-2,0.7s-0.8,1.3-0.7,2v15
		c0,2.7,0.1,5.2,0.3,7.3c0.1,2.2,0.8,4.3,2,6.1c1.4,1.9,3.3,3.2,5.5,3.9c3.1,0.9,6.3,1.3,9.5,1.2c3.2,0.1,6.4-0.3,9.5-1.2
		c2.3-0.6,4.2-2,5.7-3.9c1.2-1.8,1.9-3.9,2-6.1c0.2-2.1,0.3-4.6,0.3-7.3v-15c0.1-0.7-0.2-1.5-0.7-2C165.4,13.1,164.7,12.9,164,12.9z
		"/>
	<path class="st0" d="M208.1,20.3c0.1-2.3-0.9-4.5-2.7-5.9c-1.6-1.2-4.2-1.8-8-1.8H182c-1.5,0-3,0.1-4.5,0.4
		c-1.2,0.2-2.4,0.7-3.4,1.4c-0.9,0.7-1.7,1.6-2.1,2.6c-0.4,1-0.6,2.2-0.6,3.3v0.9c-0.1,0.9,0.2,1.8,0.8,2.5c0.7,0.6,1.6,0.9,2.5,0.8
		h11.1v21.3c-0.2,1.3,0.8,2.5,2.1,2.7c0.2,0,0.4,0,0.6,0h2.7c1.3,0.2,2.5-0.8,2.7-2.1c0-0.2,0-0.4,0-0.6V24.5H205
		c0.9,0.1,1.8-0.2,2.6-0.8c0.6-0.7,0.9-1.6,0.8-2.5v-0.9H208.1z"/>
	<path class="st0" d="M291.7,12.8h-2c-0.7-0.1-1.5,0.2-2,0.7s-0.7,1.3-0.7,2v14.9c0,1.4-0.1,2.8-0.3,4.2c-0.1,0.6-0.3,1.2-0.7,1.7
		c-0.1,0.2-0.3,0.3-0.5,0.4c-0.6,0.1-1.2,0.2-1.8,0.2c-0.6,0-1.3,0-1.9-0.2c-0.3-0.1-0.5-0.2-0.7-0.5c-0.4-0.6-0.8-1.2-1-1.9
		c-0.4-1-0.9-2.5-1.4-4.3c-1-3.3-1.9-6.1-2.7-8.2c-0.6-1.9-1.4-3.6-2.4-5.3c-0.8-1.4-1.9-2.5-3.3-3.2c-1.3-0.6-2.8-0.9-4.2-0.8
		c-2.1-0.1-4.2,0.4-6,1.3c-1.6,0.9-2.8,2.3-3.4,4c-0.7,1.8-1,3.7-1.1,5.7c-0.1,2.1-0.2,4.5-0.2,7.2V46c-0.2,1.3,0.8,2.5,2.1,2.7
		c0.2,0,0.4,0,0.6,0h2c0.7,0.1,1.5-0.2,2-0.7s0.7-1.3,0.7-2V30.6c0-1.4,0.1-2.8,0.3-4.1c0.1-0.6,0.3-1.1,0.6-1.6
		c0.1-0.2,0.3-0.3,0.5-0.3c0.6-0.1,1.3-0.2,1.9-0.1c0.7,0,1.3,0,2,0.2c0.2,0.1,0.4,0.2,0.6,0.4c0.4,0.5,0.8,1.1,1,1.7
		c0.4,1,0.9,2.4,1.4,4.2c1,3.4,1.9,6.2,2.7,8.4c0.6,1.9,1.4,3.7,2.4,5.4c0.8,1.4,1.9,2.5,3.3,3.2c1.3,0.6,2.8,0.9,4.2,0.9
		c2.1,0.1,4.2-0.4,6-1.4c1.6-1,2.8-2.4,3.4-4.1c0.7-1.9,1-3.8,1.1-5.8c0.1-2.1,0.2-4.5,0.2-7.2v-15c0.1-0.7-0.2-1.5-0.7-2
		S292.4,12.7,291.7,12.8z"/>
	<path class="st0" d="M399.3,17.7c-0.7-1.7-1.9-3.1-3.4-4c-1.8-1-3.9-1.4-6-1.3c-1.4,0-2.7,0.2-4,0.6c-1.5,0.5-2.7,1.6-3.5,2.9
		c-1,1.7-1.9,3.4-2.5,5.3c-0.8,2.2-1.7,5.1-2.7,8.8c-0.5,1.8-1,3.2-1.3,4.2c-0.2,0.6-0.5,1.1-0.9,1.6c-0.1,0.2-0.3,0.2-0.5,0.3
		c-0.7,0.1-1.5,0.1-2.2,0.1c-0.8,0-1.5,0-2.3-0.1c-0.2,0-0.4-0.1-0.5-0.3c-0.4-0.5-0.7-1-0.9-1.6c-0.4-1-0.8-2.4-1.3-4.2
		c-1-3.7-1.9-6.6-2.7-8.8c-0.6-1.9-1.4-3.6-2.4-5.3c-0.8-1.3-2.1-2.3-3.5-2.9c-1.3-0.4-2.6-0.6-4-0.6c-2.1-0.1-4.2,0.3-6,1.3
		c-1.6,0.9-2.8,2.3-3.4,4c-0.7,1.8-1,3.7-1.1,5.7s-0.2,4.5-0.2,7.2v15.2c-0.2,1.3,0.8,2.5,2.1,2.7c0.2,0,0.4,0,0.6,0h2
		c0.7,0.1,1.5-0.2,2-0.7s0.7-1.3,0.7-2V30.6c0-1.3,0.1-2.5,0.3-3.8c0.1-0.5,0.3-0.9,0.5-1.3c0.2-0.2,0.4-0.3,0.6-0.3
		c0.6-0.1,1.3-0.2,1.9-0.1c0.7,0,1.3,0,2,0.2c0.3,0.1,0.5,0.2,0.8,0.4c0.4,0.5,0.7,1,0.9,1.6c0.4,0.9,0.8,2.1,1.3,3.6
		c1.2,3.9,2.2,7.1,3,9.3c0.6,1.9,1.4,3.7,2.4,5.3c0.8,1.3,2,2.3,3.4,2.8c2.5,0.6,5.1,0.6,7.6,0c1.4-0.5,2.6-1.5,3.4-2.8
		c1-1.7,1.8-3.5,2.4-5.3c0.8-2.2,1.8-5.4,3-9.3c0.5-1.5,0.9-2.7,1.3-3.6c0.2-0.6,0.5-1.1,0.9-1.6c0.2-0.2,0.5-0.4,0.8-0.4
		c0.7-0.1,1.3-0.2,2-0.2c0.6,0,1.3,0,1.9,0.1c0.2,0,0.4,0.1,0.6,0.3c0.3,0.4,0.5,0.8,0.5,1.3c0.2,1.2,0.3,2.5,0.3,3.8v15.3
		c-0.2,1.3,0.8,2.5,2.1,2.7c0.2,0,0.4,0,0.6,0h2c1.3,0.2,2.5-0.8,2.7-2.1c0-0.2,0-0.4,0-0.6V30.6c0-2.7-0.1-5.1-0.2-7.2
		C400.3,21.5,399.9,19.5,399.3,17.7z"/>
	<path class="st0" d="M482.2,12.9h-2.3c-0.7-0.1-1.5,0.2-2,0.7s-0.7,1.3-0.7,2v15c0,1.4-0.1,2.8-0.4,4.1c-0.1,0.6-0.4,1.1-0.9,1.4
		c-0.8,0.4-1.7,0.7-2.6,0.7c-1.5,0.1-3.5,0.2-5.9,0.2s-4.4-0.1-5.9-0.2c-0.9,0-1.8-0.3-2.6-0.7c-0.4-0.3-0.7-0.8-0.8-1.3
		c-0.3-1.4-0.4-2.8-0.3-4.2v-15c0.1-0.7-0.2-1.5-0.7-2s-1.3-0.7-2-0.7h-2.3c-1.3-0.2-2.5,0.8-2.7,2.1c0,0.2,0,0.4,0,0.6v15
		c0,2.7,0.1,5.2,0.3,7.3c0.1,2.2,0.8,4.3,2.1,6.2c1.4,1.9,3.3,3.2,5.5,3.9c6.2,1.6,12.8,1.6,19,0c2.2-0.7,4.2-2,5.6-3.9
		c1.2-1.8,1.9-3.9,2.1-6.1c0.2-2.1,0.3-4.6,0.3-7.3v-15c0.1-0.7-0.2-1.5-0.7-2C483.7,13.1,483,12.9,482.2,12.9z"/>
	<path class="st0" d="M526.4,31.4c-1-1.5-2.4-2.7-4.1-3.4c-1.9-0.7-3.8-1.2-5.8-1.3c-2.1-0.2-4.6-0.4-7.3-0.5
		c-2.8-0.1-5.7-0.4-8.5-1c-0.3-0.1-0.6-0.2-0.9-0.3l0.3-0.1c0.8-0.3,1.6-0.5,2.5-0.5c1.7-0.2,3.5-0.2,5.2-0.2h14.7
		c0.9,0.1,1.9-0.2,2.6-0.8c0.6-0.7,0.9-1.6,0.8-2.5V20c0-3.5-1.8-5.2-3.2-5.9c-1.8-1-4.4-1.4-8.1-1.4h-6.7c-2.6,0-5.2,0.1-7.7,0.6
		c-1.9,0.3-3.6,1-5.1,2.1c-1.3,1-2.3,2.4-2.7,4c-0.4,1.6-0.6,3.2-0.6,4.8c-0.1,2,0.4,4.1,1.5,5.8c1,1.5,2.4,2.6,4.1,3.2
		c1.7,0.7,3.6,1.1,5.4,1.3c1.9,0.2,4.1,0.4,6.4,0.5c3.1,0.1,6.3,0.5,9.3,1c0.5,0.1,1,0.3,1.5,0.6c-0.2,0.1-0.5,0.2-0.7,0.3
		c-1,0.2-2,0.4-3.1,0.4c-1.5,0.1-3.3,0.1-5.6,0.1H495c-0.9-0.1-1.8,0.2-2.5,0.8c-0.6,0.7-0.9,1.6-0.8,2.6V42c0,1.2,0.2,2.4,0.8,3.4
		c0.6,1,1.5,1.7,2.5,2.2c1.1,0.5,2.3,0.8,3.5,0.9c1.5,0.2,3,0.2,4.5,0.2h7.4c2.6,0,5.2-0.1,7.8-0.5c1.9-0.3,3.8-0.9,5.5-1.9
		c1.5-0.9,2.6-2.2,3.3-3.8c0.6-1.6,0.9-3.3,0.8-5C527.9,35.3,527.4,33.2,526.4,31.4z"/>
	<path class="st0" d="M248.8,18.4c-1.3-1.6-3.2-2.8-5.2-3.4c-6.2-1.6-12.7-1.8-19-0.5c-2.1,0.5-3.9,1.6-5.4,3.2
		c-0.8,0.9-1.3,2-1.7,3.2c-1,0.1-2.1,0.4-3,0.8c-1.2,0.6-2,1.6-2.5,2.8c-0.5,1.6-0.7,3.2-0.7,4.9c-0.1,1.6,0.1,3.3,0.5,4.9
		c0.3,1.3,1.2,2.3,2.3,3c0.8,0.4,1.7,0.8,2.6,0.9c0.2,1.6,0.9,3.2,1.8,4.5c0.6,0.8,1.3,1.5,2.1,2c1,0.6,2,1.1,3.1,1.5
		c6.2,1.6,12.7,1.8,19,0.5c2.1-0.5,3.9-1.6,5.4-3.2c1.2-1.6,2-3.4,2.2-5.4c0.3-2.4,0.5-4.8,0.6-7.2s0-4.7-0.2-7.1
		C250.7,21.9,250,20.1,248.8,18.4z M237.8,30.1c0,1.5-0.2,3-0.7,4.4l0,0c-0.3,0.9-0.9,1.6-1.8,2c-1.2,0.5-2.5,0.8-3.8,0.8
		c-1.7,0.1-3.8,0.1-6.4,0c-2.6-0.1-4.8-0.2-6.5-0.4l-0.5-0.1c-0.2-2.2-0.2-4.5-0.2-6.7c0-2.3,0.2-4.6,0.5-6.9c0-0.4,0.1-0.7,0.2-1
		h0.3c1.7-0.1,3.9-0.1,6.5,0s4.8,0.2,6.4,0.4c1.3,0.1,2.5,0.4,3.7,1c0.8,0.5,1.4,1.2,1.7,2.1C237.7,27.1,237.9,28.6,237.8,30.1z"/>
	<path class="st0" d="M336.8,18.2c-1.3-1.7-3.1-2.9-5.2-3.5c-6.2-1.6-12.7-1.8-19-0.5c-2.1,0.5-3.9,1.6-5.4,3.2
		c-0.8,0.9-1.3,2-1.7,3.2c-1,0.1-2.1,0.4-3,0.8c-1.2,0.6-2.1,1.6-2.5,2.8c-0.5,1.6-0.7,3.2-0.7,4.9c-0.1,1.6,0.1,3.3,0.5,4.9
		c0.4,1.3,1.2,2.3,2.4,3c0.8,0.4,1.7,0.8,2.6,0.9c0.2,1.6,0.9,3.2,1.8,4.5c0.6,0.8,1.3,1.5,2.1,2c1,0.6,2,1.1,3.1,1.5
		c3.1,0.9,6.3,1.4,9.5,1.3c3.2,0.2,6.4-0.1,9.5-0.9c2.1-0.5,3.9-1.6,5.4-3.2c1.2-1.6,2-3.4,2.2-5.4c0.3-2.3,0.5-4.7,0.5-7.1
		c0.1-2.4,0-4.7-0.2-7.1C338.6,21.7,337.9,19.8,336.8,18.2z M325.8,29.9c0,1.5-0.2,2.9-0.7,4.3l0,0c-0.3,0.9-0.9,1.6-1.8,2
		c-1.2,0.5-2.5,0.8-3.8,0.8c-1.7,0.1-3.8,0.1-6.4,0s-4.8-0.2-6.5-0.4l-0.5-0.1c-0.2-2.2-0.2-4.4-0.1-6.7c0-2.3,0.2-4.6,0.5-6.9
		c0-0.4,0.1-0.7,0.2-1h0.3c1.7-0.1,3.9-0.1,6.5,0s4.8,0.2,6.4,0.4c1.3,0.1,2.6,0.4,3.7,1c0.8,0.5,1.4,1.2,1.7,2.1
		C325.7,26.9,325.9,28.4,325.8,29.9z"/>
	<path class="st0" d="M443,17.3c-1.3-1.7-3.1-2.9-5.2-3.5c-3.1-0.9-6.3-1.4-9.5-1.3c-3.2-0.2-6.4,0.1-9.5,0.9
		c-2.1,0.5-3.9,1.6-5.4,3.2c-0.8,0.9-1.3,2-1.7,3.2c-1,0.1-2.1,0.4-3,0.8c-1.2,0.6-2.1,1.6-2.5,2.8c-0.5,1.6-0.7,3.2-0.7,4.9
		c-0.1,1.6,0.1,3.3,0.5,4.9c0.4,1.3,1.2,2.3,2.3,3c0.8,0.4,1.7,0.8,2.6,0.9c0.2,1.6,0.9,3.2,1.8,4.5c0.6,0.8,1.3,1.5,2.1,2
		c1,0.6,2,1.1,3.1,1.4c3.1,0.9,6.3,1.4,9.5,1.3c3.2,0.2,6.4-0.1,9.5-0.8c2.1-0.5,3.9-1.6,5.4-3.2c1.2-1.6,2-3.4,2.2-5.4
		c0.3-2.3,0.5-4.7,0.5-7.1c0.1-2.4,0-4.7-0.2-7.1C444.8,20.9,444.1,19,443,17.3z M431.9,28.9c0,1.5-0.2,3-0.7,4.4l0,0
		c-0.3,0.9-0.9,1.6-1.8,2c-1.2,0.5-2.5,0.8-3.8,0.8c-1.7,0.1-3.8,0.1-6.4,0s-4.8-0.2-6.5-0.4c-0.2,0-0.3,0-0.5-0.1
		c-0.2-2.2-0.2-4.5-0.2-6.7c0-2.3,0.2-4.6,0.5-6.9c0-0.4,0.1-0.7,0.2-1.1h0.3c1.7-0.1,3.9-0.1,6.5,0s4.8,0.2,6.4,0.4
		c1.3,0.1,2.6,0.4,3.7,1c0.8,0.5,1.4,1.2,1.7,2.1C431.9,26,432,27.5,431.9,28.9z"/>
	<path class="st0" d="M63.3,22.8l-2.8-4.3l-0.1-0.1l-3.7-4.2l-0.1-0.1l-4.3-4h-0.1l-4.8-3.5h-0.1l-5.1-2.9h-0.1l-5.2-2.3H37L32,0
		c-0.1,0-0.1,0-0.2,0s-0.1,0-0.2,0l-5,1.4h-0.1l-5.1,2.2h-0.1l-5.1,2.9h-0.1L11.4,10h-0.1L7,14v0.1l-3.7,4.2l-0.1,0.1l-2.8,4.3
		c-0.1,0.1-0.1,0.2-0.1,0.4L0,28.3v0.1L0.5,34v0.1l1.2,5.7v0.1l1.9,5.7v0.1L6,50.9V51l2.9,4.8L9,55.9l3.2,4c0.1,0.1,0.2,0,0.3,0
		l4.8,1.8h0.1l5.4,1.3h0.1l5.8,0.6h6.1l5.8-0.6h0.1l5.5-1.3h0.1l4.8-1.8c0.1,0,0.2,0.1,0.3,0l3.2-4l0.1-0.1l2.9-4.8c0,0,0,0,0-0.1
		l2.4-5.3v-0.1l1.9-5.7v-0.1l1.2-5.8v-0.1l0.5-5.6v-0.1l-0.2-5.2C63.4,23,63.4,22.9,63.3,22.8z M62.5,26.4l-1.1-2.5l1-0.3L62.5,26.4
		z M62.5,28.2l-1.3,0.7l0.1-3.5L62.5,28.2z M62.2,23l-0.9,0.3l-0.6-2.6L62.2,23z M60.6,24.3l-0.1,4l-2-3.3L60.6,24.3z M5.7,31.3
		L4,34.5l-0.6-4.4L5.7,31.3z M3.4,29.4l2-3.5l0.4,4.6L3.4,29.4z M6.1,32.1l1,4.8l-2.8-1.4L6.1,32.1z M10.7,33.6l1.4,5.3l-4-1.5
		L10.7,33.6z M7.7,36.6l-1-5.1l3.6,1.3L7.7,36.6z M14.3,22l0.5,5.2l-4.2-1.4L14.3,22z M14.2,20.7l-3.7-1l3.8-3.5L14.2,20.7z
		 M19.9,22.6l-4.5-1.5l4.3-3.6L19.9,22.6z M15.6,15.2l4.3-3.1l-0.2,4.2L15.6,15.2z M37.2,32.2l3.2,3.7l-4.8,1.2L37.2,32.2z
		 M36.7,30.8l-4.1-3l4.5-1.8L36.7,30.8z M32.6,21.8l4.8-2.2l-0.3,5.2L32.6,21.8z M44,17.6l4.3,3.5l-4.5,1.5L44,17.6z M43.8,12.1
		l4.3,3.1L44,16.4L43.8,12.1z M48.6,21.8L48.2,27l-4.1-3.7L48.6,21.8z M49.4,22l3.8,3.8L49,27.2L49.4,22z M49.3,16.2l3.8,3.5l-3.7,1
		L49.3,16.2z M25.1,43.1l2.6,4.6l-5.5-0.6L25.1,43.1z M21.6,46.7l-2.3-5l5.2,1.1L21.6,46.7z M25.7,42.9l5.4,0.3l-2.8,4.3L25.7,42.9z
		 M25.2,41.7l-1.9-5l4.7,1.2L25.2,41.7z M24.5,42l-5.2-1.1l3.2-4L24.5,42z M18.8,40.4L17.1,35l5,1.4L18.8,40.4z M17.2,34.3l3.6-3.9
		l1.4,5.3L17.2,34.3z M16.8,33.8l-1.1-5.4l4.7,1.5L16.8,33.8z M18.2,40.6l-4.9-1.4l3.1-4L18.2,40.6z M12.8,38.6l-1.4-5.4l4.6,1.4
		L12.8,38.6z M18.1,41.3l-2.8,3.9l-2-5.2L18.1,41.3z M18.6,41.8l2.3,5l-5.1-1.2L18.6,41.8z M20.9,47.6l-2.6,3.6l-2.5-4.8L20.9,47.6z
		 M21.5,48l2.7,4.5l-5.3-0.9L21.5,48z M22.2,47.8l5.5,0.6l-2.8,3.9L22.2,47.8z M28.3,48.8l2.8,4.2l-5.6-0.3L28.3,48.8z M29,48.5h5.6
		l-2.8,4.2L29,48.5z M35.3,48.8l2.8,3.9L32.5,53L35.3,48.8z M36,48.5l5.5-0.6l-2.7,4.5L36,48.5z M44.8,40.4l-3.2-4l5-1.4L44.8,40.4z
		 M47.3,35.3l3.2,4l-4.9,1.4L47.3,35.3z M44.3,40.9L39.1,42l2-5.1L44.3,40.9z M44.3,41.6l-2.3,5l-2.9-4L44.3,41.6z M38.4,41.7
		l-2.8-3.9l4.8-1.2L38.4,41.7z M38.6,43.1l2.9,4L36,47.7L38.6,43.1z M42.2,48l2.6,3.6l-5.3,0.9L42.2,48z M42.8,47.6l5.1-1.2
		l-2.5,4.8L42.8,47.6z M42.8,46.8l2.3-5l2.9,3.9L42.8,46.8z M45.6,41.3l4.9-1.3l-2,5.2L45.6,41.3z M47.7,34.6l4.6-1.4l-1.4,5.4
		L47.7,34.6z M53,33.6l2.6,3.8l-4,1.5L53,33.6z M52.6,31.9L49.2,28l4.2-1.4L52.6,31.9z M52.2,32.6L47.6,34l1.1-5.4L52.2,32.6z
		 M46.9,33.8l-3.6-3.9l4.7-1.5L46.9,33.8z M46.5,34.3l-5,1.4l1.4-5.3L46.5,34.3z M38.1,18.5v-4.8l4.7,3L38.1,18.5z M43.3,17.4
		l-0.2,5.1l-4.6-3.3L43.3,17.4z M38.1,19.7l4.6,3.3l-4.8,1.8L38.1,19.7z M43,23.6L42.4,29l-4.2-3.4L43,23.6z M40.8,35.4l-3.2-3.7
		l4.6-1.5L40.8,35.4z M37.9,42.1l-5.4,0.3l2.6-4.2L37.9,42.1z M37.9,42.8l-2.6,4.6l-2.8-4.3L37.9,42.8z M34.6,47.8H29l2.8-4.3
		L34.6,47.8z M25.8,42.1l2.8-3.9l2.6,4.2L25.8,42.1z M23.3,35.9l3.2-3.7l1.6,4.9L23.3,35.9z M22.9,35.4l-1.4-5.2l4.6,1.5L22.9,35.4z
		 M21.2,29l-0.6-5.3l4.8,1.8L21.2,29z M21,23l4.6-3.3l0.2,5.1L21,23z M25.2,19.1l-4.6,3.3l-0.2-5.1L25.2,19.1z M20.8,16.7l4.7-3
		l0.1,4.8L20.8,16.7z M20.6,29.1l-4.7-1.5l4.1-3.7L20.6,29.1z M19.6,23.2L15.5,27L15,21.7L19.6,23.2z M16.1,34l-4.6-1.4l3.5-4
		L16.1,34z M14.5,28l-3.4,3.9l-0.8-5.3L14.5,28z M12.1,39.6l-2.3,3.5l-1.6-5L12.1,39.6z M12.6,40.2l2,5.1l-4.4-1.5L12.6,40.2z
		 M14.6,46.1l-2.1,3.2l-2.1-4.7L14.6,46.1z M15.1,46.6l2.4,4.7L13,49.8L15.1,46.6z M17.7,52.1l-2,2.7l-2.5-4.2L17.7,52.1z
		 M18.2,52.5l2.8,3.8l-4.7-1.1L18.2,52.5z M19,52.4l5.2,0.9l-2.4,3L19,52.4z M24.9,53.6l2.8,3.6l-5.1-0.6L24.9,53.6z M25.6,53.4
		l5.5,0.3L28.5,57L25.6,53.4z M31.8,53.9l2.6,3.3h-5.2L31.8,53.9z M32.5,53.7l5.5-0.3L35.2,57L32.5,53.7z M38.8,53.6l2.4,3L36,57.2
		L38.8,53.6z M39.4,53.2l5.2-0.9l-2.8,3.9L39.4,53.2z M45.4,52.5l2,2.7l-4.7,1.1L45.4,52.5z M46,52.1l4.5-1.4L48,54.8L46,52.1z
		 M46.1,51.3l2.4-4.7l2.2,3.2L46.1,51.3z M49.1,46.1l4.3-1.5l-2.1,4.7L49.1,46.1z M49.2,45.3l2-5.1l2.4,3.6L49.2,45.3z M51.6,39.6
		l4-1.5l-1.6,5L51.6,39.6z M53.5,32.8l3.5-1.3l-1,5.1L53.5,32.8z M57.7,25.1L57.2,30l-2.8-3.8L57.7,25.1z M54.2,25.5v-4.7l3.2,3.7
		L54.2,25.5z M54.6,20.1l2.6-0.6l0.4,4L54.6,20.1z M54.2,19.4l-0.5-3.7l3.1,3.2L54.2,19.4z M54,27l2.9,3.9l-3.6,1.3L54,27z
		 M53.4,25.2l-3.7-3.8l3.7-1.1V25.2z M49.7,15.7l3.1-0.5l0.5,3.8L49.7,15.7z M49.2,15l-0.5-3.4l3.6,2.9L49.2,15z M48.7,20.5L44.5,17
		l4.1-1.1L48.7,20.5z M44.4,11.7l3.5-0.6l0.6,3.5L44.4,11.7z M43.8,11l-0.5-3l3.9,2.5L43.8,11z M43.7,23.9l4.1,3.7l-4.7,1.5
		L43.7,23.9z M38.7,13.2l4.4-1.3l0.2,4.3L38.7,13.2z M38.2,12.6L38,8.8l4.5,2.6L38.2,12.6z M38,7.7l-0.3-2.6l4,2L38,7.7z M37.8,26.1
		l4.2,3.4L37.4,31L37.8,26.1z M32.8,10.2l4.6-1.5l0.2,3.9L32.8,10.2z M37.5,18.4l-4.8-2.7l4.9-2.1L37.5,18.4z M37,19l-4.8,2.2v-4.9
		L37,19z M36.7,25.3l-4.5,1.9v-4.8L36.7,25.3z M36.2,31.4l-4,1.3v-4.2L36.2,31.4z M36.4,32.1l-1.5,4.7l-2.5-3.4L36.4,32.1z
		 M31.8,42.2L29.3,38h5.1L31.8,42.2z M28.8,36.8l-1.5-4.7l4,1.3L28.8,36.8z M27.5,31.4l4-2.9v4.2L27.5,31.4z M27,30.9L26.6,26
		l4.5,1.9L27,30.9z M26.5,24.7l-0.3-5.2l4.8,2.2L26.5,24.7z M26.7,19l4.8-2.7v4.9L26.7,19z M31.5,15.1l-4.8-2l4.8-2.4V15.1z M27,8.1
		l4.5-1.9v3.4L27,8.1z M30.9,10.2l-4.7,2.3l0.2-3.9L30.9,10.2z M31,15.7l-4.8,2.7v-4.8L31,15.7z M26.3,31l-4.6-1.5l4.2-3.4L26.3,31z
		 M25.7,7.7L22,7.1l4-2L25.7,7.7z M25.5,12.6l-4.4-1.3l4.5-2.6L25.5,12.6z M25,13.2l-4.6,3l0.2-4.3L25,13.2z M19.9,11l-3.4-0.5
		L20.4,8L19.9,11z M19.3,11.6l-4.1,3l0.6-3.5L19.3,11.6z M19.2,17L15,20.5l0.1-4.6L19.2,17z M14.5,15l-3.1-0.5l3.6-3L14.5,15z
		 M14,15.6L10.3,19l0.5-3.8L14,15.6z M13.9,21.4l-3.7,3.8v-4.8L13.9,21.4z M10.4,32.2l-3.6-1.3L9.7,27L10.4,32.2z M9.5,19.4L7,18.9
		l3.1-3.2L9.5,19.4z M9.5,25.6l-3.2-1.1l3.2-3.7V25.6z M9.2,20.1l-3,3.5l0.4-4L9.2,20.1z M9.3,26.2L6.5,30l-0.4-4.8L9.3,26.2z
		 M7.1,37.7l-1.6,3.1l-1.2-4.5L7.1,37.7z M7.5,38.4L9,43.2l-3.1-1.6L7.5,38.4z M9.2,44.1l-1.4,2.7l-1.7-4.3L9.2,44.1z M9.6,44.8
		l2,4.5l-3.5-1.7L9.6,44.8z M11.9,50.2l-1.3,2.3l-2-3.9L11.9,50.2z M12.4,50.7l2.4,3.9L11.1,53L12.4,50.7z M15.1,55.6l-1.3,1.7
		L11.6,54L15.1,55.6z M15.7,56l2.6,2.9l-3.8-1.2L15.7,56z M16.7,56l4.5,1l-1.8,2L16.7,56z M21.9,57.4l2.6,2.5l-4.4-0.5L21.9,57.4z
		 M22.8,57.3l4.9,0.5l-2.2,2L22.8,57.3z M28.5,58.1l2.5,2.3l-4.6-0.3L28.5,58.1z M29.3,57.9h5l-2.5,2.4L29.3,57.9z M35.2,58.1l2.2,2
		l-4.6,0.3L35.2,58.1z M36,57.9l4.9-0.5L38.2,60L36,57.9z M41.8,57.4l1.8,2l-4.4,0.5L41.8,57.4z M42.5,57.1l4.5-1l-2.7,3L42.5,57.1z
		 M48,56l1.3,1.7l-3.8,1.2L48,56z M48.6,55.6l3.5-1.6l-2.3,3.3L48.6,55.6z M48.9,54.6l2.4-3.9l1.3,2.3L48.9,54.6z M51.8,50.1
		l3.4-1.7l-2,3.9L51.8,50.1z M52,49.2l2-4.5l1.5,2.8L52,49.2z M54.5,44.1l3.1-1.6L56,46.9L54.5,44.1z M54.7,43.2l1.6-4.8l1.6,3.2
		L54.7,43.2z M56.7,37.7l2.8-1.4l-1.2,4.5L56.7,37.7z M56.7,36.9l1-4.8l1.8,3.4L56.7,36.9z M58,31.2l2.4-1.1l-0.6,4.4L58,31.2z
		 M57.9,30.4l0.4-4.6l2,3.5L57.9,30.4z M58.3,24.2L58,20.3l2.4,3.2L58.3,24.2z M60.3,22.2l-2.1-2.8l1.5-0.2L60.3,22.2z M59.2,18.5
		l-1.5,0.2L57,16L59.2,18.5z M56.8,17.9L54,15h2L56.8,17.9z M55.4,14.3l-1.9,0.1l-0.8-2.5L55.4,14.3z M52.5,13.7L49.2,11h2.4
		L52.5,13.7z M50.8,10.3h-2.3l-0.7-2.2L50.8,10.3z M47.5,9.8L44,7.6h2.8L47.5,9.8z M45.8,6.8h-2.7L42.6,5L45.8,6.8z M42.5,7.7
		l0.5,3.1l-4.3-2.4L42.5,7.7z M42.3,6.6l-3.6-1.8l3-0.1L42.3,6.6z M40.4,4l-2.8,0.1l-0.3-1.4L40.4,4z M37.3,7.6L33,5.8l4-0.9
		L37.3,7.6z M36.8,4l-3.4-1.2l3-0.3L36.8,4z M32.2,1.2l2.7,0.7l-2.7,0.3V1.2z M36,4.4l-3.8,0.8V3.1L36,4.4z M32.2,6.2l4.5,1.9
		l-4.5,1.5V6.2z M32.2,10.7l4.8,2.4l-4.8,2V10.7z M31.8,33.8l2.5,3.4h-5L31.8,33.8z M31.5,27.2L27,25.3l4.5-2.9V27.2z M27.7,4.4
		l3.8-1.3v2.1L27.7,4.4z M31.5,1.2v1l-2.7-0.3L31.5,1.2z M27.2,2.5l3,0.3L26.8,4L27.2,2.5z M26.7,4.9l4,0.9l-4.3,1.8L26.7,4.9z
		 M26.4,2.7l-0.3,1.4L23.3,4L26.4,2.7z M22,4.7l3,0.1l-3.6,1.7L22,4.7z M25,8.4l-4.3,2.4l0.5-3.1L25,8.4z M21.1,5l-0.5,1.9h-2.7
		L21.1,5z M16.9,7.5h2.8l-3.5,2.3L16.9,7.5z M15.9,8.1l-0.7,2.2h-2.3L15.9,8.1z M12.1,11h2.4l-3.2,2.6L12.1,11z M11.1,11.8l-0.8,2.5
		l-1.9-0.1L11.1,11.8z M7.7,15l2,0.1l-2.8,2.8L7.7,15z M6.7,16L6,18.7l-1.5-0.2L6.7,16z M4.1,19.2l1.5,0.2l-2.1,2.8L4.1,19.2z
		 M5.8,20.3l-0.4,3.9l-2-0.7L5.8,20.3z M5.1,24.9l-2,3.4l-0.1-4L5.1,24.9z M3,20.6l-0.6,2.6L1.5,23L3,20.6z M2.5,28.9l-1.3-0.7
		l1.2-2.8L2.5,28.9z M1.3,23.6l1,0.3l-1.1,2.5L1.3,23.6z M1.1,29l1.3,0.7l-1,2.6L1.1,29z M1.6,33.8L2.7,31l0.6,3.9L1.6,33.8z
		 M1.7,34.7l1.6,1.1l-0.9,2.5L1.7,34.7z M3.7,36.9L4.8,41l-2-1.4L3.7,36.9z M3.1,40.6L5,41.9l-0.7,2.2L3.1,40.6z M5.4,42.9l1.5,3.9
		l-2.3-1.6L5.4,42.9z M5.1,46.4l2.2,1.5l-0.7,1.8L5.1,46.4z M7.8,48.6l1.8,3.5l-2.5-1.7L7.8,48.6z M7.8,51.8l2.3,1.5l-0.6,1.3
		L7.8,51.8z M10.6,53.9l2,2.9L10,55.3L10.6,53.9z M11,56.7l2.3,1.3l-0.6,0.8L11,56.7z M13.3,59.3l0.6-0.8l2,1.6L13.3,59.3z
		 M15.3,58.8l3.4,1l-1.1,0.8L15.3,58.8z M18.3,60.9l1.1-1l2.2,1.8L18.3,60.9z M20.7,60l3.9,0.7L23,61.9L20.7,60z M24,62.1l1.5-1.2
		l2.1,1.6L24,62.1z M26.7,60.9l4.2,0.2l-2,1.4L26.7,60.9z M30,62.6l1.9-1.4l1.9,1.4H30z M34.9,62.6l-2-1.4l4.2-0.2L34.9,62.6z
		 M36.1,62.6l2.1-1.6l1.5,1.2L36.1,62.6z M40.7,61.9l-1.6-1.2L43,60L40.7,61.9z M42.1,61.7l2.2-1.8l1.1,1L42.1,61.7z M46.1,60.7
		L45,59.8l3.4-1L46.1,60.7z M47.8,60.2l2-1.6l0.6,0.8L47.8,60.2z M51,59l-0.6-0.8l2.3-1.3L51,59z M51.1,57l2-2.9l0.6,1.4L51.1,57z
		 M54.2,54.8l-0.6-1.3l2.3-1.5L54.2,54.8z M54.1,52.3l1.8-3.5l0.7,1.9L54.1,52.3z M57.1,49.8L56.5,48l2.2-1.5L57.1,49.8z M56.8,46.9
		l1.5-3.9l0.8,2.3L56.8,46.9z M59.5,44.3l-0.7-2.2l1.9-1.4L59.5,44.3z M59,41.1l1-4.2l0.9,2.6L59,41.1z M61.3,38.4l-0.9-2.5l1.6-1.2
		L61.3,38.4z M60.5,35l0.5-4.1l1.1,2.8L60.5,35z M62.3,32.4l-1-2.6l1.2-0.8L62.3,32.4z"/>
</g>
</svg>
